<svg height="511pt" viewBox="-9 1 511 511.999" width="511pt" xmlns="http://www.w3.org/2000/svg"><path d="m302.042969 182.574219c0 15.511719-12.574219 28.085937-28.085938 28.085937h-177.582031c-15.511719 0-28.085938 12.574219-28.085938 28.085938v237.566406c0 15.507812 12.574219 28.082031 28.085938 28.082031h360.871094c15.511718 0 28.085937-12.574219 28.085937-28.082031v-293.738281c0-15.511719-12.574219-28.085938-28.085937-28.085938h-127.121094c-15.511719 0-28.082031 12.574219-28.082031 28.085938zm0 0" fill="#e58e13"/><path d="m148.375 83.015625h304.144531v388.652344h-304.144531zm0 0" fill="#cbcbcb"/><path d="m99.441406 7.605469h304.144532v257.894531h-304.144532zm0 0" fill="#cbcbcb"/><path d="m50.507812 83.015625h304.144532v182.484375h-304.144532zm0 0" fill="#e6e6e6"/><path d="m241.855469 182.574219c0 15.511719-12.574219 28.085937-28.085938 28.085937h-177.582031c-15.511719 0-28.085938 12.574219-28.085938 28.085938v237.566406c0 15.507812 12.574219 28.082031 28.085938 28.082031h360.875c15.511719 0 28.082031-12.574219 28.082031-28.082031v-293.738281c0-15.511719-12.570312-28.085938-28.082031-28.085938h-127.121094c-15.511718 0-28.085937 12.574219-28.085937 28.085938zm0 0" fill="#f7d360"/><path d="m230.492188 251.816406h158.15625v56.265625h-158.15625zm0 0" fill="#fc5f61"/><path d="m460.121094 147.011719v-63.996094c0-4.199219-3.40625-7.605469-7.605469-7.605469h-41.324219v-67.804687c0-4.199219-3.40625-7.605469-7.605468-7.605469h-304.148438c-4.199219 0-7.601562 3.40625-7.601562 7.605469v67.804687h-41.328126c-4.199218 0-7.601562 3.40625-7.601562 7.605469v120.039063h-6.71875c-19.679688 0-35.6875 16.011718-35.6875 35.691406v237.5625c0 19.679687 16.007812 35.691406 35.6875 35.691406h360.871094c.015625 0 .027344-.003906.042968-.003906h60.148438c19.679688 0 35.6875-16.007813 35.6875-35.6875v-293.734375c0-18.710938-14.476562-34.09375-32.816406-35.5625zm-353.078125-131.804688h288.941406v131.679688h-33.734375v-63.871094c0-4.199219-3.402344-7.605469-7.601562-7.605469h-247.605469zm-91.335938 461.105469v-237.566406c0-11.292969 9.1875-20.480469 20.480469-20.480469h29.769531c4.199219 0 7.601563-3.40625 7.601563-7.605469 0-4.199218-3.402344-7.605468-7.601563-7.605468h-7.84375v-112.4375h288.929688v56.269531h-77.101563c-19.679687 0-35.6875 16.007812-35.6875 35.6875 0 11.292969-9.1875 20.480469-20.484375 20.480469h-117.394531c-4.199219 0-7.605469 3.40625-7.605469 7.605468 0 4.199219 3.40625 7.605469 7.605469 7.605469h117.394531c19.679688 0 35.691407-16.011719 35.691407-35.691406 0-11.292969 9.1875-20.480469 20.480468-20.480469h127.117188c11.296875 0 20.484375 9.1875 20.484375 20.480469v293.738281c0 11.285156-9.179688 20.46875-20.464844 20.480469h-.023437c-.003907 0-.011719 0-.019532 0h-360.847656c-11.292969 0-20.480469-9.1875-20.480469-20.480469zm462.023438 0c0 11.289062-9.1875 20.480469-20.480469 20.480469h-30.988281c3.546875-5.042969 5.820312-11.039063 6.355469-17.519531h19.898437c4.199219 0 7.605469-3.40625 7.605469-7.605469v-201.601563c0-4.199218-3.40625-7.601562-7.605469-7.601562s-7.605469 3.402344-7.605469 7.601562v193.996094h-12.160156v-281.488281c0-14.660157-8.890625-27.28125-21.558594-32.765625v-59.191406h33.71875v149.035156c0 4.199218 3.40625 7.601562 7.605469 7.601562s7.605469-3.402344 7.605469-7.601562v-77.332032c9.933594 1.402344 17.609375 9.9375 17.609375 20.253907zm0 0"/><path d="m98.191406 130.160156h182.488282c4.199218 0 7.601562-3.40625 7.601562-7.605468 0-4.199219-3.402344-7.605469-7.601562-7.605469h-182.488282c-4.199218 0-7.601562 3.40625-7.601562 7.605469 0 4.199218 3.402344 7.605468 7.601562 7.605468zm0 0"/><path d="m98.191406 168.175781h104.390625c4.199219 0 7.601563-3.402343 7.601563-7.601562 0-4.203125-3.402344-7.605469-7.601563-7.605469h-104.390625c-4.199218 0-7.601562 3.402344-7.601562 7.605469 0 4.199219 3.402344 7.601562 7.601562 7.601562zm0 0"/><path d="m388.648438 244.210938h-158.15625c-4.199219 0-7.601563 3.40625-7.601563 7.605468v56.265625c0 4.199219 3.402344 7.605469 7.601563 7.605469h158.15625c4.199218 0 7.605468-3.40625 7.605468-7.605469v-56.265625c0-4.199218-3.40625-7.605468-7.605468-7.605468zm-7.601563 56.265624h-142.949219v-41.058593h142.949219zm0 0"/></svg>